<svg id="Layer_1" data-name="Layer 1" xmlns="http://www.w3.org/2000/svg" viewBox="0 0 250 128.5"><defs><style>.cls-1{fill:#231f20;}.cls-2,.cls-3{fill:none;stroke:#00aeef;stroke-linecap:round;stroke-linejoin:round;}.cls-2{stroke-width:0.28px;}.cls-3{stroke-width:0.56px;}</style></defs><title>logo</title><path class="cls-1" d="M22.4,77.31H14.18V47.65H27.9c5,0,11.5,1.36,11.5,7.64,0,4.44-3.41,6.78-7.56,7.27v.16c5.26.12,6.24,2.79,6.78,7.39A35.77,35.77,0,0,0,40,77.31H31.06a53.84,53.84,0,0,1-.9-6.28c-.33-3.57-.49-5.05-4.68-5.05H22.4Zm3.2-17.09c2.63,0,5.17-.37,5.17-3.41S28.23,53.4,25.6,53.4H22.4v6.82Z"/><path class="cls-1" d="M42.84,77.31V47.65H65.43V53.4H51.05v6.12H64.28v5.75H51.05v6.28H65.43v5.75Z"/><path class="cls-1" d="M67.12,77.31,78.83,47.65h10l11.71,29.65H91.27l-2-5.79h-12l-1.93,5.79ZM87.29,65.77,83.51,53.45h-.12l-4,12.32Z"/><path class="cls-1" d="M103,77.31V47.65h8.21v23.9h13.43v5.75Z"/><path class="cls-1" d="M127.5,77.31V47.65h13l4.85,20.08h.08l4.68-20.08H162.9V77.31h-7.19V52.5l-.08-.08-6.94,24.89H141.3l-6.53-25.09-.08.08v25Z"/><path class="cls-1" d="M14.48,84h.72V85.2h0a2.41,2.41,0,0,1,2.3-1.41c2,0,2.9,1.59,2.9,3.41s-.94,3.41-2.9,3.41A2.3,2.3,0,0,1,15.3,89.2h0v3.61h-.79Zm3,.47c-1.74,0-2.26,1.29-2.26,2.75s.59,2.75,2.26,2.75c1.5,0,2.11-1.41,2.11-2.75S19,84.45,17.53,84.45Z"/><path class="cls-1" d="M22,84h.72v1.51h0a2.38,2.38,0,0,1,2.44-1.6v.79A2.22,2.22,0,0,0,22.81,87v3.44H22Z"/><path class="cls-1" d="M31.88,87.2c0,1.85-1.07,3.41-3,3.41s-3-1.56-3-3.41,1.07-3.41,3-3.41S31.88,85.35,31.88,87.2Zm-5.31,0c0,1.37.75,2.75,2.26,2.75s2.26-1.37,2.26-2.75-.75-2.75-2.26-2.75S26.58,85.82,26.58,87.2Z"/><path class="cls-1" d="M33.43,84h.72V85.2h0a2.41,2.41,0,0,1,2.3-1.41c2,0,2.9,1.59,2.9,3.41s-.94,3.41-2.9,3.41a2.3,2.3,0,0,1-2.24-1.41h0v3.61h-.79Zm3,.47c-1.74,0-2.26,1.29-2.26,2.75s.59,2.75,2.26,2.75c1.5,0,2.11-1.41,2.11-2.75S38,84.45,36.48,84.45Z"/><path class="cls-1" d="M41.44,87.41a2.29,2.29,0,0,0,2.12,2.54,2,2,0,0,0,2-1.65h.79a2.63,2.63,0,0,1-2.81,2.31c-2,0-2.91-1.57-2.91-3.41s.86-3.41,2.91-3.41,2.9,1.81,2.84,3.62Zm4.17-.66a2.17,2.17,0,0,0-2-2.3,2.29,2.29,0,0,0-2.12,2.3Z"/><path class="cls-1" d="M47.83,84h.72v1.51h0A2.38,2.38,0,0,1,51,83.89v.79A2.22,2.22,0,0,0,48.62,87v3.44h-.79Z"/><path class="cls-1" d="M53.76,84h1.31v.66H53.76V89c0,.51.08.81.64.85a6.12,6.12,0,0,0,.67,0v.67l-.7,0c-1,0-1.41-.35-1.4-1.45V84.64H51.85V84H53V82h.79Z"/><path class="cls-1" d="M55.86,84h.84l2.12,5.5,2-5.5h.79l-2.8,7.43c-.45,1.09-.71,1.4-1.7,1.4a2,2,0,0,1-.6-.06v-.66a2.73,2.73,0,0,0,.54.06c.7,0,.86-.41,1.12-1l.27-.74Z"/><path class="cls-1" d="M71.14,86a1.75,1.75,0,0,0-1.82-1.55c-1.51,0-2.26,1.37-2.26,2.75s.75,2.75,2.26,2.75a1.92,1.92,0,0,0,1.87-1.84H72a2.62,2.62,0,0,1-2.66,2.5c-2,0-3-1.56-3-3.41s1.07-3.41,3-3.41A2.41,2.41,0,0,1,71.93,86Z"/><path class="cls-1" d="M73.46,81.5h.79v8.92h-.79Z"/><path class="cls-1" d="M76.6,87.41a2.29,2.29,0,0,0,2.12,2.54,2,2,0,0,0,2-1.65h.79a2.63,2.63,0,0,1-2.81,2.31c-2,0-2.91-1.57-2.91-3.41s.86-3.41,2.91-3.41,2.9,1.81,2.84,3.62Zm4.17-.66a2.17,2.17,0,0,0-2-2.3,2.29,2.29,0,0,0-2.12,2.3Z"/><path class="cls-1" d="M82.91,85.95c.08-1.51,1.14-2.16,2.61-2.16,1.14,0,2.37.35,2.37,2.07v3.42a.42.42,0,0,0,.46.47.74.74,0,0,0,.25,0v.66a2.14,2.14,0,0,1-.51,0c-.8,0-.92-.45-.92-1.12h0a2.46,2.46,0,0,1-2.35,1.31c-1.19,0-2.16-.59-2.16-1.89,0-1.81,1.76-1.87,3.46-2.07.65-.07,1-.16,1-.87,0-1.06-.76-1.32-1.69-1.32s-1.7.45-1.72,1.5Zm4.2.95h0c-.1.19-.45.25-.66.29-1.34.24-3,.22-3,1.49a1.34,1.34,0,0,0,1.44,1.27,2.07,2.07,0,0,0,2.25-2Z"/><path class="cls-1" d="M89.83,84h.79v1.11h0a2.19,2.19,0,0,1,2.06-1.3c1.81,0,2.36.95,2.36,2.49v4.15h-.79v-4c0-1.11-.36-1.95-1.64-1.95a2,2,0,0,0-2,2.21v3.76h-.79Z"/><path class="cls-1" d="M96.94,81.5h.79v1.26h-.79Zm0,2.47h.79v6.45h-.79Z"/><path class="cls-1" d="M99.6,84h.79v1.11h0a2.19,2.19,0,0,1,2.06-1.3c1.81,0,2.36.95,2.36,2.49v4.15H104v-4c0-1.11-.36-1.95-1.64-1.95a2,2,0,0,0-2,2.21v3.76H99.6Z"/><path class="cls-1" d="M112.14,89.89c0,1.92-.75,3.1-2.86,3.1-1.29,0-2.56-.57-2.67-1.95h.79a1.7,1.7,0,0,0,1.89,1.29c1.45,0,2.07-.86,2.07-2.44V89h0a2.23,2.23,0,0,1-2,1.32c-2.06,0-2.91-1.47-2.91-3.31a3,3,0,0,1,2.91-3.25,2.27,2.27,0,0,1,2,1.3h0V84h.79Zm-.79-2.77c0-1.26-.59-2.67-2.07-2.67s-2.12,1.34-2.12,2.67.67,2.56,2.12,2.56S111.35,88.43,111.35,87.12Z"/><path class="cls-1" d="M121.72,85.86A1.48,1.48,0,0,0,120,84.45c-.7,0-1.52.27-1.52,1.11s.8.95,1.34,1.09l1,.24a1.89,1.89,0,0,1,1.84,1.79c0,1.4-1.39,1.94-2.59,1.94a2.34,2.34,0,0,1-2.65-2.27h.79a1.7,1.7,0,0,0,1.9,1.61c.74,0,1.76-.32,1.76-1.22,0-.75-.7-1-1.41-1.17l-1-.22c-1-.27-1.8-.63-1.8-1.72,0-1.31,1.29-1.81,2.42-1.81a2.11,2.11,0,0,1,2.36,2.07Z"/><path class="cls-1" d="M124.7,87.41a2.29,2.29,0,0,0,2.12,2.54,2,2,0,0,0,2-1.65h.79a2.63,2.63,0,0,1-2.81,2.31c-2,0-2.91-1.57-2.91-3.41s.86-3.41,2.91-3.41,2.9,1.81,2.84,3.62Zm4.17-.66a2.17,2.17,0,0,0-2-2.3,2.29,2.29,0,0,0-2.12,2.3Z"/><path class="cls-1" d="M131.1,84h.72v1.51h0a2.38,2.38,0,0,1,2.44-1.6v.79a2.22,2.22,0,0,0-2.4,2.31v3.44h-.79Z"/><path class="cls-1" d="M135.31,84h.87l2,5.66h0l2-5.66H141l-2.41,6.45h-.84Z"/><path class="cls-1" d="M142.2,81.5H143v1.26h-.79Zm0,2.47H143v6.45h-.79Z"/><path class="cls-1" d="M149.42,86a1.75,1.75,0,0,0-1.82-1.55c-1.51,0-2.26,1.37-2.26,2.75s.75,2.75,2.26,2.75a1.92,1.92,0,0,0,1.87-1.84h.79a2.62,2.62,0,0,1-2.66,2.5c-2,0-3-1.56-3-3.41s1.07-3.41,3-3.41A2.41,2.41,0,0,1,150.21,86Z"/><path class="cls-1" d="M152.19,87.41a2.29,2.29,0,0,0,2.12,2.54,2,2,0,0,0,2-1.65h.79a2.63,2.63,0,0,1-2.81,2.31c-2,0-2.91-1.57-2.91-3.41s.86-3.41,2.91-3.41,2.9,1.81,2.84,3.62Zm4.17-.66a2.17,2.17,0,0,0-2-2.3,2.29,2.29,0,0,0-2.12,2.3Z"/><path class="cls-1" d="M162.45,85.86a1.48,1.48,0,0,0-1.69-1.41c-.7,0-1.52.27-1.52,1.11s.8.95,1.34,1.09l1,.24a1.89,1.89,0,0,1,1.84,1.79c0,1.4-1.39,1.94-2.59,1.94a2.34,2.34,0,0,1-2.65-2.27H159a1.7,1.7,0,0,0,1.9,1.61c.74,0,1.76-.32,1.76-1.22,0-.75-.7-1-1.41-1.17l-1-.22c-1-.27-1.8-.63-1.8-1.72,0-1.31,1.29-1.81,2.42-1.81a2.11,2.11,0,0,1,2.36,2.07Z"/><polygon class="cls-2" points="191.65 15.72 175.37 47.65 176.54 90.45 204.55 107.56 230.87 55.97 216.8 11.29 191.65 15.72"/><polygon class="cls-2" points="176.54 90.45 191.65 15.72 230.87 55.97 176.54 90.45"/><polygon class="cls-2" points="175.37 47.65 216.8 11.29 204.55 107.56 175.37 47.65"/><line class="cls-2" x1="176.54" y1="90.45" x2="216.8" y2="11.29"/><line class="cls-2" x1="191.65" y1="15.72" x2="204.55" y2="107.56"/><line class="cls-2" x1="175.37" y1="47.65" x2="230.87" y2="55.97"/><polygon class="cls-2" points="186.59 70.69 211.48 53.07 191.65 15.72 186.59 70.69"/><polygon class="cls-2" points="184.91 49.08 206.69 31.16 204.55 107.56 184.91 49.08"/><polygon class="cls-2" points="184.91 49.08 200.05 75.53 216.8 11.29 184.91 49.08"/><polygon class="cls-2" points="193.86 31.42 211.48 53.07 176.54 90.45 193.86 31.42"/><polygon class="cls-2" points="200.05 75.53 206.69 31.16 175.37 47.65 200.05 75.53"/><polygon class="cls-2" points="186.59 70.69 193.86 31.42 230.87 55.97 186.59 70.69"/><path class="cls-2" d="M190.44,49.91c-.37,2.3-1,7,1.18,10.89s5.22,2.63,6.6,1.66,4.43-4.3,5.37-10.57c.83-5.58,0-8.52-1.92-10.86s-4.33-2.17-6.52-.37S191,46.21,190.44,49.91Z"/><path class="cls-2" d="M205.76,64.32a6.24,6.24,0,0,0,8.84,2c3.39-2.15,5.26-6.91,5.86-11.88S220,44.84,217.26,42s-5.3-2.65-8.32-.57-4.88,7.3-5.35,10.46A18.47,18.47,0,0,0,205.76,64.32Z"/><path class="cls-2" d="M190.44,49.91c.49-2.65.82-7.57-1-9.64s-3.53-1.83-5.15-.4A15.62,15.62,0,0,0,180,48.35c-.61,3.13-.77,7.21.36,9.53s3.25,2.72,5.33,1.42S189.64,54.21,190.44,49.91Z"/><path class="cls-2" d="M175.62,56.79c1.77-1.51,3.48-4.39,4.37-8.44s.39-7.48-.47-8.82-2.62-1.72-4.38,0-3.38,5.56-3.93,8.38-.65,6.85.74,8.65A2.36,2.36,0,0,0,175.62,56.79Z"/><path class="cls-2" d="M220.47,54.41a15.91,15.91,0,0,1,6.09-12.11,8.66,8.66,0,0,1,10.67.42c2.57,2.08,5.8,6.94,5.8,13.74s-2.88,12.08-5.73,14.23a8.47,8.47,0,0,1-10.41.41C222.94,68.54,220.08,62.21,220.47,54.41Z"/><path class="cls-2" d="M192.85,23.22a16.14,16.14,0,0,0-4.37,8.21c-.64,3.17-.38,6.88.91,8.85s3.64,2.13,5.76.38a15.25,15.25,0,0,0,4.77-9.36c.68-4.32.41-6.66-1.67-8.8C196.67,20.87,194.38,21.92,192.85,23.22Z"/><path class="cls-2" d="M201.68,41c1.34,1.34,3.93,2.77,7.26.4s4.92-7.09,5.33-10.27,0-8.1-2.52-9.94-5-1-7.2.83c-1.88,1.64-3.93,5.55-4.63,9.24S200.24,39.59,201.68,41Z"/><path class="cls-2" d="M191.62,60.8a21.14,21.14,0,0,1,1.3,12.13c-.95,4.91-2.85,8.94-5.19,10.42s-4.76,0-6.05-3-1.44-8.18-.69-11.87,2.39-7.38,4.7-9.2S190.51,58.09,191.62,60.8Z"/><path class="cls-2" d="M198.22,62.46c2.19-1.55,4.82-2.32,7.55,1.86s3.22,8.35,2.56,13.62-2.6,10.4-6.21,12.2-6.4-.73-7.79-3.6-2.16-9-1.39-13.61S195.39,64.46,198.22,62.46Z"/><path class="cls-2" d="M196.08,102.39c.82-5.81,3.25-10.54,6-12.25s6.34-.55,9.16,4.26,5.5,17,1.8,26.18-9.39,8.6-13,3.33S195,110,196.08,102.39Z"/><path class="cls-2" d="M181.67,80.36c1.32,3.19,1.68,7.59.6,13.59s-4.09,11.18-7.23,10.53S169.86,97.12,171.2,89s4-10.5,5-11.24S179.88,76,181.67,80.36Z"/><path class="cls-2" d="M192.72,23.33c2.51-2.11,3.68-5.38,4.32-8.56s0-8-3-7.57-5.65,4.63-6.51,7.29-1.84,8.45,1.1,10C190.49,25.5,192.72,23.33,192.72,23.33Z"/><path class="cls-2" d="M211.75,21.21c2.07,1.53,4.08,2,7.92-.79s6.87-10.86,4.67-15.75c-2-4.45-5.77-4.31-9.12-2.16-3.14,2-5.22,6.26-5.75,10.06S210.07,20,211.75,21.21Z"/><polygon class="cls-3" points="193.86 31.42 206.69 31.16 211.48 53.07 200.05 75.53 186.59 70.69 184.91 49.08 193.86 31.42"/></svg>